<mxfile host="app.diagrams.net" modified="2022-01-17T13:58:39.506Z" agent="5.0 (Macintosh; Intel Mac OS X 10_15_7) AppleWebKit/537.36 (KHTML, like Gecko) Chrome/97.0.4692.71 Safari/537.36" etag="0rij-ZIpB_AcBuUbg6GX" version="14.6.11" type="github">
  <diagram id="GYZ3p6ojLbph5A_0XKGX" name="Page-1">
    <mxGraphModel dx="1168" dy="821" grid="1" gridSize="10" guides="1" tooltips="1" connect="1" arrows="1" fold="1" page="1" pageScale="1" pageWidth="827" pageHeight="1169" math="0" shadow="0">
      <root>
        <mxCell id="0" />
        <mxCell id="1" parent="0" />
        <mxCell id="grHG-4hU5mD1MYhPcvV0-11" style="edgeStyle=orthogonalEdgeStyle;rounded=0;orthogonalLoop=1;jettySize=auto;html=1;" edge="1" parent="1" source="grHG-4hU5mD1MYhPcvV0-1" target="grHG-4hU5mD1MYhPcvV0-3">
          <mxGeometry relative="1" as="geometry" />
        </mxCell>
        <mxCell id="grHG-4hU5mD1MYhPcvV0-1" value="&lt;div&gt;匹配对应的路由&lt;/div&gt;" style="rounded=0;whiteSpace=wrap;html=1;" vertex="1" parent="1">
          <mxGeometry x="280" y="100" width="120" height="60" as="geometry" />
        </mxCell>
        <mxCell id="grHG-4hU5mD1MYhPcvV0-12" style="edgeStyle=orthogonalEdgeStyle;rounded=0;orthogonalLoop=1;jettySize=auto;html=1;entryX=0.5;entryY=0;entryDx=0;entryDy=0;" edge="1" parent="1" source="grHG-4hU5mD1MYhPcvV0-3" target="grHG-4hU5mD1MYhPcvV0-4">
          <mxGeometry relative="1" as="geometry" />
        </mxCell>
        <mxCell id="grHG-4hU5mD1MYhPcvV0-3" value="&lt;div&gt;用 staticRouter 将对应路由的组件&amp;nbsp;数据dehydrate&lt;/div&gt;" style="rounded=0;whiteSpace=wrap;html=1;" vertex="1" parent="1">
          <mxGeometry x="280" y="200" width="120" height="60" as="geometry" />
        </mxCell>
        <mxCell id="grHG-4hU5mD1MYhPcvV0-13" style="edgeStyle=orthogonalEdgeStyle;rounded=0;orthogonalLoop=1;jettySize=auto;html=1;entryX=0.5;entryY=0;entryDx=0;entryDy=0;" edge="1" parent="1" source="grHG-4hU5mD1MYhPcvV0-4" target="grHG-4hU5mD1MYhPcvV0-6">
          <mxGeometry relative="1" as="geometry" />
        </mxCell>
        <mxCell id="grHG-4hU5mD1MYhPcvV0-4" value="&lt;div&gt;调用renderToStream方法&lt;/div&gt;" style="rounded=0;whiteSpace=wrap;html=1;" vertex="1" parent="1">
          <mxGeometry x="280" y="310" width="120" height="60" as="geometry" />
        </mxCell>
        <mxCell id="grHG-4hU5mD1MYhPcvV0-5" value="&lt;div&gt;返回html到前端&lt;/div&gt;" style="rounded=0;whiteSpace=wrap;html=1;" vertex="1" parent="1">
          <mxGeometry x="280" y="580" width="120" height="60" as="geometry" />
        </mxCell>
        <mxCell id="grHG-4hU5mD1MYhPcvV0-14" style="edgeStyle=orthogonalEdgeStyle;rounded=0;orthogonalLoop=1;jettySize=auto;html=1;" edge="1" parent="1" source="grHG-4hU5mD1MYhPcvV0-6" target="grHG-4hU5mD1MYhPcvV0-5">
          <mxGeometry relative="1" as="geometry" />
        </mxCell>
        <mxCell id="grHG-4hU5mD1MYhPcvV0-6" value="&lt;div&gt;将html字符串、数据等塞到html模版&lt;/div&gt;" style="rounded=0;whiteSpace=wrap;html=1;" vertex="1" parent="1">
          <mxGeometry x="280" y="460" width="120" height="60" as="geometry" />
        </mxCell>
        <mxCell id="grHG-4hU5mD1MYhPcvV0-8" value="返回html字符串" style="text;html=1;strokeColor=none;fillColor=none;align=center;verticalAlign=middle;whiteSpace=wrap;rounded=0;" vertex="1" parent="1">
          <mxGeometry x="346" y="410" width="110" height="20" as="geometry" />
        </mxCell>
      </root>
    </mxGraphModel>
  </diagram>
</mxfile>
